<mxfile host="65bd71144e">
    <diagram name="Page-1" id="26VWRPMp3Q1bX2AIwDwe">
        <mxGraphModel dx="1002" dy="1501" grid="1" gridSize="10" guides="1" tooltips="1" connect="1" arrows="1" fold="1" page="1" pageScale="1" pageWidth="850" pageHeight="1100" math="0" shadow="0">
            <root>
                <mxCell id="0"/>
                <mxCell id="1" parent="0"/>
                <mxCell id="SWPlqkmiZ7L3-vQjwUTa-1" value="Vue3 设计与实现" style="rounded=1;whiteSpace=wrap;html=1;" parent="1" vertex="1">
                    <mxGeometry x="140" y="260" width="120" height="60" as="geometry"/>
                </mxCell>
                <mxCell id="3" style="edgeStyle=none;html=1;exitX=1;exitY=0.5;exitDx=0;exitDy=0;entryX=0;entryY=0.5;entryDx=0;entryDy=0;" edge="1" parent="1" source="SWPlqkmiZ7L3-vQjwUTa-11" target="4">
                    <mxGeometry relative="1" as="geometry">
                        <mxPoint x="520" y="40" as="targetPoint"/>
                    </mxGeometry>
                </mxCell>
                <mxCell id="SWPlqkmiZ7L3-vQjwUTa-11" value="一、框架设计" style="whiteSpace=wrap;html=1;rounded=1;" parent="1" vertex="1">
                    <mxGeometry x="340" y="10" width="120" height="60" as="geometry"/>
                </mxCell>
                <mxCell id="SWPlqkmiZ7L3-vQjwUTa-13" value="二 响应系统" style="whiteSpace=wrap;html=1;rounded=1;" parent="1" vertex="1">
                    <mxGeometry x="340" y="110" width="120" height="60" as="geometry"/>
                </mxCell>
                <mxCell id="SWPlqkmiZ7L3-vQjwUTa-14" value="三 渲染器" style="whiteSpace=wrap;html=1;rounded=1;" parent="1" vertex="1">
                    <mxGeometry x="340" y="210" width="120" height="60" as="geometry"/>
                </mxCell>
                <mxCell id="SWPlqkmiZ7L3-vQjwUTa-15" value="四 组件化" style="whiteSpace=wrap;html=1;rounded=1;" parent="1" vertex="1">
                    <mxGeometry x="340" y="310" width="120" height="60" as="geometry"/>
                </mxCell>
                <mxCell id="SWPlqkmiZ7L3-vQjwUTa-16" value="五 编译器" style="whiteSpace=wrap;html=1;rounded=1;" parent="1" vertex="1">
                    <mxGeometry x="340" y="410" width="120" height="60" as="geometry"/>
                </mxCell>
                <mxCell id="SWPlqkmiZ7L3-vQjwUTa-17" value="六 服务端渲染" style="whiteSpace=wrap;html=1;rounded=1;" parent="1" vertex="1">
                    <mxGeometry x="340" y="510" width="120" height="60" as="geometry"/>
                </mxCell>
                <mxCell id="SWPlqkmiZ7L3-vQjwUTa-20" value="" style="shape=curlyBracket;whiteSpace=wrap;html=1;rounded=1;labelPosition=left;verticalLabelPosition=middle;align=right;verticalAlign=middle;" parent="1" vertex="1">
                    <mxGeometry x="280" y="40" width="20" height="500" as="geometry"/>
                </mxCell>
                <mxCell id="4" value="1. 命令式 &amp;amp; 声明式&lt;br&gt;2. 性能 &amp;amp; 可维护性&lt;br&gt;3. 虚拟dom&lt;br&gt;4. 运行时 &amp;amp; 编译时" style="rounded=1;whiteSpace=wrap;html=1;strokeWidth=2;fillWeight=4;hachureGap=8;hachureAngle=45;fillColor=#004C99;sketch=1;align=left;" vertex="1" parent="1">
                    <mxGeometry x="530" y="10" width="120" height="60" as="geometry"/>
                </mxCell>
                <mxCell id="7" style="edgeStyle=none;html=1;exitX=1;exitY=0.5;exitDx=0;exitDy=0;entryX=0;entryY=0.5;entryDx=0;entryDy=0;" edge="1" parent="1" target="8">
                    <mxGeometry relative="1" as="geometry">
                        <mxPoint x="460" y="140" as="sourcePoint"/>
                        <mxPoint x="520" y="140" as="targetPoint"/>
                    </mxGeometry>
                </mxCell>
                <mxCell id="8" value="命令式 &amp;amp; 声明式&lt;br&gt;性能 &amp;amp; 可维护性&lt;br&gt;虚拟dom" style="rounded=1;whiteSpace=wrap;html=1;strokeWidth=2;fillWeight=4;hachureGap=8;hachureAngle=45;fillColor=#004C99;sketch=1;" vertex="1" parent="1">
                    <mxGeometry x="530" y="110" width="120" height="60" as="geometry"/>
                </mxCell>
                <mxCell id="9" value="innerHTML? 和原生JS是不同的" style="shape=callout;whiteSpace=wrap;html=1;perimeter=calloutPerimeter;fillColor=#004C99;position2=0;" vertex="1" parent="1">
                    <mxGeometry x="670" y="-20" width="120" height="70" as="geometry"/>
                </mxCell>
            </root>
        </mxGraphModel>
    </diagram>
</mxfile>